<?xml version="1.0" encoding="UTF-8" standalone="no"?>
<svg
   xmlns:svg="http://www.w3.org/2000/svg"
   xmlns="http://www.w3.org/2000/svg"
   width="77.544197mm"
   height="49.241234mm"
   viewBox="0 0 77.544197 49.241234"
   version="1.1">
  <g
     id="layer1"
     transform="translate(-61.76956,-54.665098)">
    <g
       aria-label="}"
       fill="#00ff00">
      <path
         d="m 139.31376,81.081098 q -1.2192,0 -2.0828,0.4572 -0.8636,0.4064 -1.4732,1.1176 -0.5588,0.6604 -0.8636,1.5748 -0.254,0.8636 -0.254,1.778 v 9.144 q 0,2.0828 -0.4572,3.7084 -0.4572,1.625602 -1.5748,2.743202 -1.1176,1.1176 -2.9972,1.6764 -1.8288,0.5588 -4.572,0.5588 h -0.2032 v -3.7084 q 2.8956,0 4.1148,-1.066802 1.27,-1.016 1.27,-3.9624 v -7.8232 q 0,-3.3528 0.8636,-5.1816 0.9144,-1.8288 2.54,-2.8448 -1.6256,-1.016 -2.54,-2.8448 -0.8636,-1.8288 -0.8636,-5.1816 v -7.8232 q 0,-2.9464 -1.27,-3.9624 -1.2192,-1.0668 -4.1148,-1.0668 v -3.7084 h 0.2032 q 2.7432,0 4.572,0.6096 1.8796,0.5588 2.9972,1.6764 1.1176,1.0668 1.5748,2.6924 0.4572,1.6256 0.4572,3.7084 v 9.144 q 0,0.9144 0.254,1.8288 0.3048,0.8636 0.8636,1.5748 0.6096,0.6604 1.4732,1.1176 0.8636,0.4064 2.0828,0.4064 z" />
    </g>
    <g
       aria-label="web">
      <path
         d="m 89.488111,94.149651 q -0.7315,-1.881 -1.5675,-4.284499 -0.809874,-2.429624 -1.489124,-5.042123 -0.67925,2.612499 -1.489125,5.042123 -0.809874,2.403499 -1.541374,4.284499 h -2.116124 q -1.20175,-2.690874 -2.351249,-6.139373 -1.1495,-3.448499 -2.168375,-7.445622 h 2.612499 q 0.26125,1.227874 0.627,2.664749 0.36575,1.436874 0.757625,2.873749 0.418,1.436874 0.862125,2.769249 0.444124,1.332374 0.835999,2.325124 0.444125,-1.227875 0.862125,-2.586374 0.444125,-1.384625 0.836,-2.769249 0.391875,-1.41075 0.731499,-2.743124 0.36575,-1.3585 0.627,-2.534124 h 2.011624 q 0.235125,1.175624 0.57475,2.534124 0.339625,1.332374 0.7315,2.743124 0.391875,1.384624 0.809875,2.769249 0.444125,1.358499 0.888249,2.586374 0.391875,-0.99275 0.809875,-2.325124 0.444125,-1.332375 0.862125,-2.769249 0.418,-1.436875 0.783749,-2.873749 0.36575,-1.436875 0.627,-2.664749 h 2.507999 q -1.018874,3.997123 -2.168374,7.445622 -1.149499,3.448499 -2.351249,6.139373 z" />
      <path
         d="m 97.935463,87.383278 q 0,-1.802624 0.5225,-3.134999 0.5225,-1.358499 1.384624,-2.246749 0.862123,-0.88825 1.985503,-1.332375 1.12337,-0.444124 2.299,-0.444124 2.74312,0 4.20612,1.724249 1.463,1.698124 1.463,5.198873 0,0.15675 0,0.418 0,0.235125 -0.0261,0.444125 h -9.30049 q 0.15675,2.116124 1.22787,3.213374 1.07113,1.097249 3.344,1.097249 1.28012,0 2.14225,-0.209 0.88825,-0.235125 1.33237,-0.444125 l 0.33963,2.03775 q -0.44413,0.235125 -1.5675,0.496375 -1.09725,0.261249 -2.508,0.261249 -1.7765,0 -3.08275,-0.522499 -1.28012,-0.548625 -2.116123,-1.489125 -0.835999,-0.940499 -1.253999,-2.220624 -0.391875,-1.30625 -0.391875,-2.847624 z m 9.326617,-1.332374 q 0.0261,-1.645875 -0.836,-2.690874 -0.83599,-1.071125 -2.32512,-1.071125 -0.836,0 -1.48912,0.339625 -0.627,0.3135 -1.07113,0.835999 -0.44412,0.5225 -0.70537,1.20175 -0.23513,0.67925 -0.3135,1.384625 z" />
      <path
         d="m 115.71597,81.16553 q 0.44412,-0.287375 1.33237,-0.600874 0.91437,-0.3135 2.09,-0.3135 1.463,0 2.58637,0.522499 1.1495,0.5225 1.93325,1.463 0.78375,0.9405 1.17563,2.246749 0.418,1.30625 0.418,2.873749 0,1.645874 -0.49638,2.978249 -0.47025,1.306249 -1.3585,2.220624 -0.88825,0.914375 -2.14225,1.41075 -1.254,0.496374 -2.8215,0.496374 -1.69812,0 -3.00437,-0.235124 -1.30625,-0.235125 -2.14225,-0.47025 V 74.294658 l 2.42963,-0.418 z m 0,10.867996 q 0.36575,0.1045 1.01887,0.209 0.67925,0.07838 1.672,0.07838 1.95937,0 3.135,-1.280124 1.17562,-1.30625 1.17562,-3.683624 0,-1.045 -0.209,-1.959374 -0.209,-0.914375 -0.67925,-1.5675 -0.47025,-0.679249 -1.22787,-1.044999 -0.7315,-0.391875 -1.7765,-0.391875 -0.99275,0 -1.82875,0.339625 -0.836,0.339625 -1.28012,0.705374 z" />
    </g>
    <g
       aria-label="{"
       fill="#00ff00">
      <path
         d="m 61.76956,77.490332 q 1.2192,0 2.0828,-0.4064 0.8636,-0.4572 1.4224,-1.1176 0.6096,-0.7112 0.8636,-1.5748 0.3048,-0.9144 0.3048,-1.8288 v -9.144 q 0,-2.0828 0.4572,-3.7084 0.4572,-1.6256 1.5748,-2.6924 1.1176,-1.1176 2.9464,-1.6764 1.8796,-0.6096 4.6228,-0.6096 h 0.2032 v 3.7084 q -2.8956,0 -4.1656,1.0668 -1.2192,1.016 -1.2192,3.9624 v 7.8232 q 0,3.3528 -0.9144,5.1816 -0.8636,1.8288 -2.4892,2.8448 1.6256,1.016 2.4892,2.844799 0.9144,1.8288 0.9144,5.1816 v 7.8232 q 0,2.9464 1.2192,3.9624 1.27,1.066799 4.1656,1.066799 v 3.7084 h -0.2032 q -2.7432,0 -4.6228,-0.5588 -1.8288,-0.5588 -2.9464,-1.6764 -1.1176,-1.1176 -1.5748,-2.743199 -0.4572,-1.6256 -0.4572,-3.7084 v -9.144 q 0,-0.9144 -0.3048,-1.778 -0.254,-0.9144 -0.8636,-1.5748 -0.5588,-0.7112 -1.4224,-1.1176 -0.8636,-0.4572 -2.0828,-0.4572 z" />
    </g>
    <g aria-label="simplement">
      <path
         d="m 77.668562,71.946053 q 0.540614,0 0.796695,-0.142267 0.265565,-0.142267 0.265565,-0.455254 0,-0.322472 -0.256081,-0.512161 -0.256081,-0.189689 -0.844117,-0.426801 -0.284534,-0.113814 -0.550099,-0.227627 -0.256081,-0.123298 -0.44577,-0.284534 -0.189689,-0.161236 -0.303503,-0.388863 -0.113814,-0.227627 -0.113814,-0.559584 0,-0.654428 0.483708,-1.033806 0.483708,-0.388863 1.318341,-0.388863 0.208658,0 0.417316,0.02845 0.208658,0.01897 0.388863,0.05691 0.180205,0.02845 0.312988,0.06639 0.142267,0.03794 0.218142,0.06639 l -0.161236,0.758758 q -0.142267,-0.07588 -0.445769,-0.151752 -0.303503,-0.08536 -0.730304,-0.08536 -0.369894,0 -0.644944,0.151751 -0.275049,0.142267 -0.275049,0.455255 0,0.161236 0.05691,0.284534 0.06639,0.123298 0.18969,0.227627 0.132782,0.09484 0.322472,0.180205 0.189689,0.08536 0.455254,0.180205 0.350925,0.132782 0.625975,0.265565 0.275049,0.123298 0.464738,0.294018 0.199174,0.17072 0.303503,0.417316 0.104329,0.237112 0.104329,0.588037 0,0.682882 -0.512161,1.033807 -0.502676,0.350925 -1.441638,0.350925 -0.654429,0 -1.024323,-0.113814 -0.369894,-0.104329 -0.502676,-0.161235 l 0.161236,-0.758758 q 0.151751,0.05691 0.483707,0.170721 0.331957,0.113813 0.882056,0.113813 z" />
      <path
         d="m 81.626547,72.581512 h -0.882055 v -4.931921 h 0.882055 z m -0.44577,-5.823461 q -0.237111,0 -0.407831,-0.151751 -0.161236,-0.161236 -0.161236,-0.426801 0,-0.265565 0.161236,-0.417317 0.17072,-0.161236 0.407831,-0.161236 0.237112,0 0.398348,0.161236 0.17072,0.151752 0.17072,0.417317 0,0.265565 -0.17072,0.426801 -0.161236,0.151751 -0.398348,0.151751 z" />
      <path
         d="m 83.152657,67.791858 q 0.303503,-0.07588 0.796695,-0.161236 0.502677,-0.08536 1.157105,-0.08536 0.474223,0 0.796695,0.132782 0.322472,0.123298 0.540614,0.369894 0.06639,-0.04742 0.208659,-0.132782 0.142267,-0.08536 0.350925,-0.161236 0.208658,-0.08536 0.464739,-0.142267 0.25608,-0.06639 0.550098,-0.06639 0.569068,0 0.929478,0.17072 0.36041,0.161236 0.559583,0.464739 0.208659,0.303503 0.27505,0.720819 0.07588,0.417317 0.07588,0.910509 v 2.769463 h -0.882056 v -2.579774 q 0,-0.436285 -0.04742,-0.749273 -0.03794,-0.312987 -0.161236,-0.521645 -0.113813,-0.208658 -0.322472,-0.303503 -0.199173,-0.104329 -0.521645,-0.104329 -0.44577,0 -0.739788,0.123298 -0.284534,0.113813 -0.388863,0.208658 0.07587,0.246596 0.113813,0.540615 0.03794,0.294018 0.03794,0.61649 v 2.769463 h -0.882055 v -2.579774 q 0,-0.436285 -0.04742,-0.749273 -0.04742,-0.312987 -0.17072,-0.521645 -0.113814,-0.208658 -0.322472,-0.303503 -0.199174,-0.104329 -0.512161,-0.104329 -0.132782,0 -0.284534,0.0095 -0.151751,0.0095 -0.294018,0.02845 -0.132783,0.0095 -0.246596,0.02845 -0.113814,0.01897 -0.151752,0.02845 v 4.16368 h -0.882055 z" />
      <path
         d="m 94.745785,70.125036 q 0,-0.863086 -0.426801,-1.327825 -0.426801,-0.464739 -1.138136,-0.464739 -0.398347,0 -0.625974,0.02845 -0.218143,0.02845 -0.350926,0.06639 v 3.110904 q 0.161236,0.132783 0.464739,0.256081 0.303503,0.123298 0.663913,0.123298 0.379378,0 0.644943,-0.132783 0.27505,-0.142267 0.44577,-0.379378 0.170721,-0.246596 0.246596,-0.569068 0.07588,-0.331956 0.07588,-0.711335 z m 0.919993,0 q 0,0.559584 -0.151751,1.033807 -0.142267,0.474223 -0.426801,0.815664 -0.284534,0.34144 -0.701851,0.53113 -0.407832,0.189689 -0.938962,0.189689 -0.426801,0 -0.758757,-0.113814 -0.322472,-0.113813 -0.483708,-0.218142 v 1.972768 h -0.882055 v -6.534796 q 0.312988,-0.07588 0.777726,-0.161236 0.474224,-0.09484 1.090714,-0.09484 0.569068,0 1.024322,0.180205 0.455254,0.180204 0.777726,0.512161 0.322472,0.331956 0.493192,0.815664 0.180205,0.474223 0.180205,1.071744 z" />
      <path
         d="m 98.395822,72.676357 q -0.815664,-0.01897 -1.157105,-0.350925 -0.341441,-0.331956 -0.341441,-1.033807 v -5.918306 l 0.882055,-0.151751 v 5.92779 q 0,0.218143 0.03794,0.36041 0.03794,0.142267 0.123298,0.227627 0.08536,0.08536 0.227627,0.132783 0.142267,0.03794 0.350926,0.06639 z" />
      <path
         d="m 99.234604,70.125036 q 0,-0.654428 0.189689,-1.138136 0.18969,-0.493192 0.502677,-0.815664 0.31299,-0.322471 0.72082,-0.483707 0.40783,-0.161236 0.83463,-0.161236 0.99587,0 1.527,0.625974 0.53113,0.616491 0.53113,1.887409 0,0.05691 0,0.151751 0,0.08536 -0.009,0.161236 h -3.37647 q 0.0569,0.768242 0.44577,1.166589 0.38886,0.398348 1.21401,0.398348 0.46474,0 0.77772,-0.07588 0.32248,-0.08536 0.48371,-0.161236 l 0.1233,0.739789 q -0.16124,0.08536 -0.56907,0.180204 -0.39835,0.09484 -0.91051,0.09484 -0.64494,0 -1.11916,-0.189689 -0.46474,-0.199174 -0.768245,-0.540615 -0.303502,-0.34144 -0.455254,-0.806179 -0.142267,-0.474223 -0.142267,-1.033807 z m 3.385956,-0.483708 q 0.009,-0.597521 -0.3035,-0.976899 -0.30351,-0.388863 -0.84412,-0.388863 -0.30351,0 -0.54062,0.123298 -0.22762,0.113813 -0.38886,0.303502 -0.16124,0.18969 -0.25608,0.436286 -0.0854,0.246596 -0.11381,0.502676 z" />
      <path
         d="m 104.80762,67.791858 q 0.3035,-0.07588 0.79669,-0.161236 0.50268,-0.08536 1.15711,-0.08536 0.47422,0 0.79669,0.132782 0.32247,0.123298 0.54062,0.369894 0.0664,-0.04742 0.20865,-0.132782 0.14227,-0.08536 0.35093,-0.161236 0.20866,-0.08536 0.46474,-0.142267 0.25608,-0.06639 0.5501,-0.06639 0.56906,0 0.92947,0.17072 0.36041,0.161236 0.55959,0.464739 0.20866,0.303503 0.27505,0.720819 0.0759,0.417317 0.0759,0.910509 v 2.769463 h -0.88205 v -2.579774 q 0,-0.436285 -0.0474,-0.749273 -0.0379,-0.312987 -0.16123,-0.521645 -0.11381,-0.208658 -0.32247,-0.303503 -0.19918,-0.104329 -0.52165,-0.104329 -0.44577,0 -0.73979,0.123298 -0.28453,0.113813 -0.38886,0.208658 0.0759,0.246596 0.11381,0.540615 0.0379,0.294018 0.0379,0.61649 v 2.769463 h -0.88205 v -2.579774 q 0,-0.436285 -0.0474,-0.749273 -0.0474,-0.312987 -0.17072,-0.521645 -0.11381,-0.208658 -0.32247,-0.303503 -0.19917,-0.104329 -0.51216,-0.104329 -0.13278,0 -0.28453,0.0095 -0.15175,0.0095 -0.29402,0.02845 -0.13278,0.0095 -0.2466,0.02845 -0.11381,0.01897 -0.15175,0.02845 v 4.16368 h -0.88205 z" />
      <path
         d="m 112.7018,70.125036 q 0,-0.654428 0.18969,-1.138136 0.18969,-0.493192 0.50268,-0.815664 0.31298,-0.322471 0.72082,-0.483707 0.40783,-0.161236 0.83463,-0.161236 0.99587,0 1.527,0.625974 0.53113,0.616491 0.53113,1.887409 0,0.05691 0,0.151751 0,0.08536 -0.009,0.161236 h -3.37647 q 0.0569,0.768242 0.44577,1.166589 0.38887,0.398348 1.21402,0.398348 0.46473,0 0.77772,-0.07588 0.32247,-0.08536 0.48371,-0.161236 l 0.1233,0.739789 q -0.16124,0.08536 -0.56907,0.180204 -0.39835,0.09484 -0.91051,0.09484 -0.64494,0 -1.11917,-0.189689 -0.46473,-0.199174 -0.76824,-0.540615 -0.3035,-0.34144 -0.45525,-0.806179 -0.14227,-0.474223 -0.14227,-1.033807 z m 3.38596,-0.483708 q 0.009,-0.597521 -0.30351,-0.976899 -0.3035,-0.388863 -0.84411,-0.388863 -0.30351,0 -0.54062,0.123298 -0.22763,0.113813 -0.38886,0.303502 -0.16124,0.18969 -0.25608,0.436286 -0.0854,0.246596 -0.11382,0.502676 z" />
      <path
         d="m 118.27482,67.791858 q 0.3035,-0.07588 0.80618,-0.161236 0.50267,-0.08536 1.1571,-0.08536 0.58804,0 0.9769,0.17072 0.38886,0.161236 0.61649,0.464739 0.23711,0.294018 0.33196,0.711335 0.0948,0.417316 0.0948,0.919993 v 2.769463 h -0.88205 v -2.579774 q 0,-0.455254 -0.0664,-0.777726 -0.0569,-0.322472 -0.19918,-0.521646 -0.14226,-0.199173 -0.37938,-0.284534 -0.23711,-0.09484 -0.58803,-0.09484 -0.14227,0 -0.29402,0.0095 -0.15175,0.0095 -0.29402,0.02845 -0.13278,0.0095 -0.2466,0.02845 -0.10433,0.01897 -0.15175,0.02845 v 4.16368 h -0.88205 z" />
      <path
         d="m 124.54612,67.649591 h 1.86844 v 0.739788 h -1.86844 v 2.276272 q 0,0.369894 0.0569,0.61649 0.0569,0.237111 0.17072,0.379378 0.11381,0.132783 0.28453,0.18969 0.17072,0.05691 0.39835,0.05691 0.39835,0 0.63546,-0.08536 0.24659,-0.09484 0.34144,-0.132782 l 0.17072,0.730304 q -0.13278,0.06639 -0.46474,0.161235 -0.33196,0.10433 -0.75876,0.10433 -0.50267,0 -0.83463,-0.123298 -0.32247,-0.132783 -0.52164,-0.388864 -0.19918,-0.25608 -0.28454,-0.625974 -0.0759,-0.379379 -0.0759,-0.872571 v -4.400792 l 0.88205,-0.151751 z" />
    </g>
  </g>
</svg>
